# xmcd CD database file
#
# Track frame offsets:
#	150
#	10553
#	21608
#	32823
#	43670
#	54615
#	67180
#	79748
#	95160
#	105035
#	117923
#	129598
#	142953
#	156428
#	172195
#	183573
#	197690
#	210070
#	221973
#	235795
#	246630
#	257315
#	269893
#	283223
#	295353
#	310553
#
# Disc length: 4437 seconds
#
# Revision: 2
# Processed by: cddbd v1.4b41PL1 Copyright (c) Steve Scherf et al.
# Submitted via: Feurio! 1.50.2ß - http://www.feurio.com
#
DISCID=8d11531a
DTITLE=Howlin' Wolf - Red Rooster
DYEAR=1900
DGENRE=
TTITLE0=Shake For Me
TTITLE1=Red Rooster
TTITLE2=You'll Be Mine
TTITLE3=Who's Been Talkin'
TTITLE4=Wang Dang Doodle
TTITLE5=Little Baby
TTITLE6=Spoonful
TTITLE7=Goin' Down Slow
TTITLE8=Down On The Bottom
TTITLE9=Back Door Man
TTITLE10=Howlin' For My Baby
TTITLE11=Tell Me
TTITLE12=My Baby Walked Off
TTITLE13=Killing Floor
TTITLE14=Country Sugar Mama
TTITLE15=My Life
TTITLE16=Goin' Back Home
TTITLE17=Louise
TTITLE18=Highway 49
TTITLE19=Hold Onto Your Money
TTITLE20=Built For Comfort
TTITLE21=Ain't Superstitious
TTITLE22=My Last Affair
TTITLE23=Dorothy Mae
TTITLE24=Commit A Crime
TTITLE25=Moanin' At Midnight
EXTD=
EXTT0=
EXTT1=
EXTT2=
EXTT3=
EXTT4=
EXTT5=
EXTT6=
EXTT7=
EXTT8=
EXTT9=
EXTT10=
EXTT11=
EXTT12=
EXTT13=
EXTT14=
EXTT15=
EXTT16=
EXTT17=
EXTT18=
EXTT19=
EXTT20=
EXTT21=
EXTT22=
EXTT23=
EXTT24=
EXTT25=
PLAYORDER=
